<?xml version="1.0" encoding="utf-8"?>
<!-- Generator: Adobe Illustrator 23.1.0, SVG Export Plug-In . SVG Version: 6.00 Build 0)  -->
<svg version="1.1" id="Layer_1" xmlns="http://www.w3.org/2000/svg" xmlns:xlink="http://www.w3.org/1999/xlink" x="0px" y="0px"
	 viewBox="0 0 512 512" style="enable-background:new 0 0 512 512;" xml:space="preserve">
<path d="M464,32H48C21.5,32,0,53.5,0,80v352c0,26.5,21.5,48,48,48h416c26.5,0,48-21.5,48-48V80C512,53.5,490.5,32,464,32z
	 M356.5,194.6L295.1,256l61.4,61.4c4.6,4.6,4.6,12.1,0,16.8l-22.3,22.3c-4.6,4.6-12.1,4.6-16.8,0L256,295.1l-61.4,61.4
	c-4.6,4.6-12.1,4.6-16.8,0l-22.3-22.3c-4.6-4.6-4.6-12.1,0-16.8l61.4-61.4l-61.4-61.4c-4.6-4.6-4.6-12.1,0-16.8l22.3-22.3
	c4.6-4.6,12.1-4.6,16.8,0l61.4,61.4l61.4-61.4c4.6-4.6,12.1-4.6,16.8,0l22.3,22.3C361.2,182.4,361.2,189.9,356.5,194.6L356.5,194.6z
	"/>
</svg>
