<?xml version="1.0" encoding="utf-8"?>
<!-- Generator: Adobe Illustrator 23.1.0, SVG Export Plug-In . SVG Version: 6.00 Build 0)  -->
<svg version="1.1" id="Layer_1" xmlns="http://www.w3.org/2000/svg" xmlns:xlink="http://www.w3.org/1999/xlink" x="0px" y="0px"
	 viewBox="0 0 512 512" style="enable-background:new 0 0 512 512;" xml:space="preserve">
<style type="text/css">
	.st0{fill:#FFFFFF;}
</style>
<path class="st0" d="M497.9,273.9c18.7-18.7,18.7-49.1,0-67.9l-160-160c-18.7-18.7-49.1-18.7-67.9,0l-256,256
	c-18.7,18.7-18.7,49.1,0,67.9l96,96c9,9,21.2,14.1,33.9,14.1h356c6.6,0,12-5.4,12-12v-40c0-6.6-5.4-12-12-12H355.9L497.9,273.9
	L497.9,273.9z M195.3,211.3l137.4,137.4L265.4,416H150.6l-80-80L195.3,211.3L195.3,211.3z"/>
</svg>
