<?xml version="1.0" encoding="utf-8"?>
<!-- Generator: Adobe Illustrator 23.1.0, SVG Export Plug-In . SVG Version: 6.00 Build 0)  -->
<svg version="1.1" id="Layer_1" xmlns="http://www.w3.org/2000/svg" xmlns:xlink="http://www.w3.org/1999/xlink" x="0px" y="0px"
	 viewBox="0 0 512 512" style="enable-background:new 0 0 512 512;" xml:space="preserve">
<style type="text/css">
	.st0{fill:#FFFFFF;}
</style>
<path class="st0" d="M500,128c6.6,0,12-5.4,12-12V44c0-6.6-5.4-12-12-12h-72c-6.6,0-12,5.4-12,12v12H96V44c0-6.6-5.4-12-12-12H12
	C5.4,32,0,37.4,0,44v72c0,6.6,5.4,12,12,12h12v256H12c-6.6,0-12,5.4-12,12v72c0,6.6,5.4,12,12,12h72c6.6,0,12-5.4,12-12v-12h320v12
	c0,6.6,5.4,12,12,12h72c6.6,0,12-5.4,12-12v-72c0-6.6-5.4-12-12-12h-12V128H500z M448,64h32v32h-32V64z M32,64h32v32H32V64z M64,448
	H32v-32h32V448z M480,448h-32v-32h32V448z M440,384h-12c-6.6,0-12,5.4-12,12v12H96v-12c0-6.6-5.4-12-12-12H72V128h12
	c6.6,0,12-5.4,12-12v-12h320v12c0,6.6,5.4,12,12,12h12V384z M404,192h-84v-52c0-6.6-5.4-12-12-12H108c-6.6,0-12,5.4-12,12v168
	c0,6.6,5.4,12,12,12h84v52c0,6.6,5.4,12,12,12h200c6.6,0,12-5.4,12-12V204C416,197.4,410.6,192,404,192z M136,168h144v112H136V168z
	 M376,344H232v-24h76c6.6,0,12-5.4,12-12v-76h56V344z"/>
</svg>
